<svg aria-hidden="true" xmlns="http://www.w3.org/2000/svg" xmlns:xlink="http://www.w3.org/1999/xlink">
<symbol viewBox="0 0 8 12" id="arrow-show" xmlns="http://www.w3.org/2000/svg">
<path d="M1.5 11L6.5 6L1.5 1" stroke-width="1.5" stroke-linecap="round" stroke-linejoin="round"/>
</symbol>

<symbol viewBox="0 0 40 40" id="bad" xmlns="http://www.w3.org/2000/svg">
<path d="M33.3327 15V9.99996C33.3327 9.1159 32.9815 8.26806 32.3564 7.64294C31.7312 7.01782 30.8834 6.66663 29.9993 6.66663H9.99935C9.11529 6.66663 8.26745 7.01782 7.64233 7.64294C7.0172 8.26806 6.66602 9.1159 6.66602 9.99996V15" stroke-width="1.5" stroke-linecap="round" stroke-linejoin="round"/>
<path d="M3.33398 18.3333V26.6667C3.33398 27.5507 3.68517 28.3986 4.31029 29.0237C4.93542 29.6488 5.78326 30 6.66732 30H33.334C34.218 30 35.0659 29.6488 35.691 29.0237C36.3161 28.3986 36.6673 27.5507 36.6673 26.6667V18.3333C36.6673 17.4493 36.3161 16.6014 35.691 15.9763C35.0659 15.3512 34.218 15 33.334 15C32.4499 15 31.6021 15.3512 30.977 15.9763C30.3518 16.6014 30.0007 17.4493 30.0007 18.3333V21.6667H10.0007V18.3333C10.0007 17.4493 9.64946 16.6014 9.02434 15.9763C8.39922 15.3512 7.55137 15 6.66732 15C5.78326 15 4.93542 15.3512 4.31029 15.9763C3.68517 16.6014 3.33398 17.4493 3.33398 18.3333Z" stroke-width="1.5" stroke-linecap="round" stroke-linejoin="round"/>
<path d="M6.66602 30V33.3333" stroke-width="1.5" stroke-linecap="round" stroke-linejoin="round"/>
<path d="M33.334 30V33.3333" stroke-width="1.5" stroke-linecap="round" stroke-linejoin="round"/>
<path d="M20 6.66663V21.6666" stroke-width="1.5" stroke-linecap="round" stroke-linejoin="round"/>
</symbol>

<symbol viewBox="0 0 20 20" id="calendar" xmlns="http://www.w3.org/2000/svg">
<path d="M17.5 6.25016V5.00016C17.5 4.55814 17.3244 4.13421 17.0118 3.82165C16.6993 3.50909 16.2754 3.3335 15.8333 3.3335H4.16667C3.72464 3.3335 3.30072 3.50909 2.98816 3.82165C2.67559 4.13421 2.5 4.55814 2.5 5.00016V16.6668C2.5 17.1089 2.67559 17.5328 2.98816 17.8453C3.30072 18.1579 3.72464 18.3335 4.16667 18.3335H7.08333" stroke-width="1.5" stroke-linecap="round" stroke-linejoin="round"/>
<path d="M13.333 1.6665V4.99984" stroke-width="1.5" stroke-linecap="round" stroke-linejoin="round"/>
<path d="M6.66699 1.6665V4.99984" stroke-width="1.5" stroke-linecap="round" stroke-linejoin="round"/>
<path d="M2.5 8.3335H6.66667" stroke-width="1.5" stroke-linecap="round" stroke-linejoin="round"/>
<path d="M14.583 14.5832L13.333 13.5415V11.6665" stroke-width="1.5" stroke-linecap="round" stroke-linejoin="round"/>
<path d="M18.333 13.3335C18.333 14.6596 17.8062 15.9313 16.8685 16.869C15.9309 17.8067 14.6591 18.3335 13.333 18.3335C12.0069 18.3335 10.7352 17.8067 9.79747 16.869C8.85979 15.9313 8.33301 14.6596 8.33301 13.3335C8.33301 12.0074 8.85979 10.7356 9.79747 9.79796C10.7352 8.86028 12.0069 8.3335 13.333 8.3335C14.6591 8.3335 15.9309 8.86028 16.8685 9.79796C17.8062 10.7356 18.333 12.0074 18.333 13.3335Z" stroke-width="1.5" stroke-linecap="round" stroke-linejoin="round"/>
</symbol>

<symbol viewBox="0 0 20 20" id="chack-arrow" xmlns="http://www.w3.org/2000/svg">
<path d="M16.6673 5L7.50065 14.1667L3.33398 10" stroke-width="3" stroke-linecap="round" stroke-linejoin="round"/>
</symbol>

<symbol viewBox="0 0 17 16" id="clock" xmlns="http://www.w3.org/2000/svg">
<path d="M8.31315 14.6668C11.995 14.6668 14.9798 11.6821 14.9798 8.00016C14.9798 4.31826 11.995 1.3335 8.31315 1.3335C4.63125 1.3335 1.64648 4.31826 1.64648 8.00016C1.64648 11.6821 4.63125 14.6668 8.31315 14.6668Z" stroke-linecap="round" stroke-linejoin="round"/>
<path d="M8.17969 4V8L10.1797 9.33333" stroke-linecap="round" stroke-linejoin="round"/>
</symbol>

<symbol viewBox="0 0 40 40" id="experience" xmlns="http://www.w3.org/2000/svg">
<path d="M36.6673 11.6666L22.5007 25.8333L14.1673 17.5L3.33398 28.3333" stroke-width="1.5" stroke-linecap="round" stroke-linejoin="round"/>
<path d="M26.666 11.6666H36.666V21.6666" stroke-width="1.5" stroke-linecap="round" stroke-linejoin="round"/>
</symbol>

<symbol viewBox="0 0 24 24" id="filter" xmlns="http://www.w3.org/2000/svg">
<path d="M22 3L2 3L10 12.46L10 19L14 21L14 12.46L22 3Z" stroke-width="1.5" stroke-linecap="round" stroke-linejoin="round"/>
</symbol>

<symbol viewBox="0 0 29 28" id="google-location" xmlns="http://www.w3.org/2000/svg">
<path d="M16.6702 1.55968C15.7791 1.27857 14.8244 1.12476 13.8379 1.12476C10.9578 1.12476 8.38005 2.42424 6.65625 4.47158L11.0851 8.19498L16.6702 1.55968Z"/>
<path d="M6.65679 4.47144C5.23688 6.15791 4.45908 8.29216 4.46094 10.4968C4.46094 12.2577 4.811 13.6898 5.38914 14.968L11.0856 8.19484L6.65679 4.47144Z"/>
<path d="M13.8373 6.91667C14.521 6.9173 15.1903 7.11329 15.7664 7.48155C16.3425 7.84981 16.8013 8.37502 17.0889 8.99531C17.3764 9.61561 17.4808 10.3052 17.3896 10.9828C17.2984 11.6604 17.0155 12.2978 16.5742 12.82L22.154 6.18472C21.0087 3.97812 19.0342 2.31648 16.6643 1.56494L11.0898 8.20024C11.4257 7.79799 11.8459 7.47451 12.3207 7.2527C12.7955 7.03088 13.3133 6.91617 13.8373 6.91667Z"/>
<path d="M13.8379 14.0876C11.8595 14.0876 10.2524 12.4805 10.2524 10.5021C10.2501 9.65974 10.5471 8.84393 11.0905 8.2002L5.38867 14.9734C6.36461 17.1321 7.98233 18.8665 9.64778 21.0518L16.5748 12.82C16.2383 13.2176 15.819 13.537 15.3463 13.756C14.8736 13.9749 14.3589 14.0881 13.8379 14.0876Z"/>
<path d="M16.4362 23.2954C19.5655 18.4051 23.2094 16.1827 23.2094 10.4968C23.2094 8.93745 22.8275 7.46825 22.1539 6.17407L9.65234 21.0518C10.1827 21.7466 10.7184 22.4839 11.2382 23.3007C13.1371 26.2391 12.612 28 13.8372 28C15.0624 28 14.5373 26.2338 16.4362 23.2954Z"/>
</symbol>

<symbol viewBox="0 0 20 20" id="home" xmlns="http://www.w3.org/2000/svg">
<path d="M2.5 7.49984L10 1.6665L17.5 7.49984V16.6665C17.5 17.1085 17.3244 17.5325 17.0118 17.845C16.6993 18.1576 16.2754 18.3332 15.8333 18.3332H4.16667C3.72464 18.3332 3.30072 18.1576 2.98816 17.845C2.67559 17.5325 2.5 17.1085 2.5 16.6665V7.49984Z" stroke-linecap="round" stroke-linejoin="round"/>
<path d="M7.5 18.3333V10H12.5V18.3333" stroke-linecap="round" stroke-linejoin="round"/>
</symbol>

<symbol viewBox="0 0 20 20" id="info" xmlns="http://www.w3.org/2000/svg">
<g clip-path="url(#jclip0_37_32257)">
<path d="M10.0003 18.3334C14.6027 18.3334 18.3337 14.6025 18.3337 10.0001C18.3337 5.39771 14.6027 1.66675 10.0003 1.66675C5.39795 1.66675 1.66699 5.39771 1.66699 10.0001C1.66699 14.6025 5.39795 18.3334 10.0003 18.3334Z" stroke-width="1.5" stroke-linecap="round" stroke-linejoin="round"/>
<path d="M10 13.3333V10" stroke-width="1.5" stroke-linecap="round" stroke-linejoin="round"/>
<path d="M10 6.66675H10.01" stroke-width="1.5" stroke-linecap="round" stroke-linejoin="round"/>
</g>
<defs>
<clipPath id="jclip0_37_32257">
<rect width="20" height="20"/>
</clipPath>
</defs>
</symbol>

<symbol viewBox="0 0 21 20" id="location" xmlns="http://www.w3.org/2000/svg">
<path d="M16.9798 8.33317C16.9798 13.3332 10.3131 18.3332 10.3131 18.3332C10.3131 18.3332 3.64648 13.3332 3.64648 8.33317C3.64648 6.56506 4.34886 4.86937 5.59911 3.61913C6.84935 2.36888 8.54504 1.6665 10.3131 1.6665C12.0813 1.6665 13.777 2.36888 15.0272 3.61913C16.2774 4.86937 16.9798 6.56506 16.9798 8.33317Z" stroke-width="1.5" stroke-linecap="round" stroke-linejoin="round"/>
<path d="M10.3125 10.8335C11.6932 10.8335 12.8125 9.71421 12.8125 8.3335C12.8125 6.95278 11.6932 5.8335 10.3125 5.8335C8.93179 5.8335 7.8125 6.95278 7.8125 8.3335C7.8125 9.71421 8.93179 10.8335 10.3125 10.8335Z" stroke-width="1.5" stroke-linecap="round" stroke-linejoin="round"/>
</symbol>

<symbol viewBox="0 0 25 25" id="phone" xmlns="http://www.w3.org/2000/svg">
<path d="M21.4994 16.9765V19.6862C21.5005 19.9377 21.4488 20.1867 21.3479 20.4172C21.2469 20.6477 21.0988 20.8546 20.913 21.0247C20.7273 21.1947 20.508 21.3242 20.2693 21.4048C20.0305 21.4854 19.7775 21.5153 19.5265 21.4927C16.7415 21.1907 14.0664 20.2409 11.716 18.7197C9.52929 17.3329 7.67534 15.4827 6.2858 13.3003C4.75627 10.9439 3.80442 8.26107 3.50735 5.46915C3.48473 5.21938 3.51447 4.96764 3.59468 4.72996C3.67489 4.49229 3.80381 4.27389 3.97323 4.08866C4.14265 3.90343 4.34885 3.75544 4.57872 3.65411C4.80858 3.55278 5.05707 3.50032 5.30837 3.50009H8.02347C8.46269 3.49577 8.8885 3.651 9.22152 3.93683C9.55455 4.22267 9.77207 4.61961 9.83354 5.05366C9.94814 5.92084 10.1607 6.77229 10.4671 7.59177C10.5888 7.91507 10.6152 8.26642 10.543 8.6042C10.4708 8.94198 10.3031 9.25203 10.0598 9.49761L8.91041 10.6447C10.1988 12.906 12.0748 14.7784 14.3406 16.0642L15.49 14.9171C15.7361 14.6742 16.0467 14.5069 16.3852 14.4348C16.7236 14.3628 17.0757 14.3891 17.3996 14.5106C18.2207 14.8164 19.0739 15.0285 19.9428 15.1429C20.3824 15.2048 20.7839 15.4258 21.0709 15.7639C21.358 16.1019 21.5105 16.5335 21.4994 16.9765Z" stroke-width="1.5" stroke-linecap="round" stroke-linejoin="round"/>
</symbol>

<symbol viewBox="0 0 24 24" id="phone-outgoing" xmlns="http://www.w3.org/2000/svg">
<path d="M22 8V2H16" stroke-width="1.5" stroke-linecap="round" stroke-linejoin="round"/>
<path d="M16 8L22 2" stroke-width="1.5" stroke-linecap="round" stroke-linejoin="round"/>
<path d="M21.9994 16.9201V19.9201C22.0006 20.1986 21.9435 20.4743 21.832 20.7294C21.7204 20.9846 21.5567 21.2137 21.3515 21.402C21.1463 21.5902 20.904 21.7336 20.6402 21.8228C20.3764 21.912 20.0968 21.9452 19.8194 21.9201C16.7423 21.5857 13.7864 20.5342 11.1894 18.8501C8.77327 17.3148 6.72478 15.2663 5.18945 12.8501C3.49942 10.2413 2.44769 7.27109 2.11944 4.1801C2.09446 3.90356 2.12732 3.62486 2.21595 3.36172C2.30457 3.09859 2.44702 2.85679 2.63421 2.65172C2.82141 2.44665 3.04925 2.28281 3.30324 2.17062C3.55722 2.05843 3.83179 2.00036 4.10945 2.0001H7.10945C7.59475 1.99532 8.06524 2.16718 8.43321 2.48363C8.80118 2.80008 9.04152 3.23954 9.10944 3.7201C9.23607 4.68016 9.47089 5.62282 9.80945 6.5301C9.94399 6.88802 9.97311 7.27701 9.89335 7.65098C9.8136 8.02494 9.62831 8.36821 9.35944 8.6401L8.08945 9.9101C9.513 12.4136 11.5859 14.4865 14.0894 15.9101L15.3594 14.6401C15.6313 14.3712 15.9746 14.1859 16.3486 14.1062C16.7225 14.0264 17.1115 14.0556 17.4694 14.1901C18.3767 14.5286 19.3194 14.7635 20.2794 14.8901C20.7652 14.9586 21.2088 15.2033 21.526 15.5776C21.8431 15.9519 22.0116 16.4297 21.9994 16.9201Z" stroke-width="1.5" stroke-linecap="round" stroke-linejoin="round"/>
</symbol>

<symbol viewBox="0 0 40 40" id="professionalism" xmlns="http://www.w3.org/2000/svg">
<path d="M20 23.3334C25.5228 23.3334 30 18.8562 30 13.3334C30 7.81053 25.5228 3.33337 20 3.33337C14.4772 3.33337 10 7.81053 10 13.3334C10 18.8562 14.4772 23.3334 20 23.3334Z" stroke-width="1.5" stroke-linecap="round" stroke-linejoin="round"/>
<path d="M25.7944 21.4833L28.3327 36.6666L19.9993 31.6666L11.666 36.6666L14.2043 21.4833" stroke-width="1.5" stroke-linecap="round" stroke-linejoin="round"/>
</symbol>

<symbol viewBox="0 0 24 24" id="search" xmlns="http://www.w3.org/2000/svg">
<path d="M13 19C8.58172 19 5 15.4183 5 11C5 6.58172 8.58172 3 13 3C17.4183 3 21 6.58172 21 11C21 15.4183 17.4183 19 13 19Z" stroke-width="1.5" stroke-linecap="round" stroke-linejoin="round"/>
<path d="M3.0001 20.9999L7.3501 16.6499" stroke-width="1.5" stroke-linecap="round" stroke-linejoin="round"/>
</symbol>

<symbol viewBox="0 0 11 20" id="slider-arraw" xmlns="http://www.w3.org/2000/svg">
<path d="M1 19L10 10L0.999999 1" stroke-width="1.5" stroke-linecap="round" stroke-linejoin="round"/>
</symbol>

<symbol viewBox="0 0 20 19" id="star" xmlns="http://www.w3.org/2000/svg">
<path d="M9.99935 1.66669L12.5743 6.88335L18.3327 7.72502L14.166 11.7834L15.1493 17.5167L9.99935 14.8084L4.84935 17.5167L5.83268 11.7834L1.66602 7.72502L7.42435 6.88335L9.99935 1.66669Z" stroke-width="1.5" stroke-linecap="round" stroke-linejoin="round"/>
</symbol>

<symbol viewBox="0 0 26 25" id="timer" xmlns="http://www.w3.org/2000/svg">
<path d="M10.4824 2.0835H14.6491" stroke-width="1.5" stroke-linecap="round" stroke-linejoin="round"/>
<path d="M12.5664 14.5832V10.4165" stroke-width="1.5" stroke-linecap="round" stroke-linejoin="round"/>
<path d="M4.23242 13.5414C4.48749 11.5164 5.47686 9.6554 7.01289 8.31137C8.54892 6.96735 10.5248 6.23377 12.5658 6.24977C13.9137 6.2512 15.2412 6.57961 16.4344 7.20681C17.6275 7.83402 18.6507 8.7413 19.4162 9.85083C20.1817 10.9604 20.6666 12.239 20.8293 13.5771C20.992 14.9153 20.8277 16.2729 20.3505 17.5335C19.8732 18.7942 19.0973 19.9202 18.0892 20.8151C17.0811 21.71 15.871 22.347 14.5627 22.6714C13.2544 22.9959 11.8868 22.9981 10.5775 22.6779C9.26807 22.3577 8.0559 21.7247 7.04492 20.8331L4.23242 18.3331" stroke-width="1.5" stroke-linecap="round" stroke-linejoin="round"/>
<path d="M9.44076 17.7085H4.23242V22.9168" stroke-width="1.5" stroke-linecap="round" stroke-linejoin="round"/>
</symbol>

<symbol viewBox="0 0 24 24" id="user" xmlns="http://www.w3.org/2000/svg">
<g clip-path="url(#sclip0_102_20678)">
<path d="M19 21V19C19 17.9391 18.5786 16.9217 17.8284 16.1716C17.0783 15.4214 16.0609 15 15 15H9C7.93913 15 6.92172 15.4214 6.17157 16.1716C5.42143 16.9217 5 17.9391 5 19V21" stroke-width="1.5" stroke-linecap="round" stroke-linejoin="round"/>
<path d="M12 11C14.2091 11 16 9.20914 16 7C16 4.79086 14.2091 3 12 3C9.79086 3 8 4.79086 8 7C8 9.20914 9.79086 11 12 11Z" stroke-width="1.5" stroke-linecap="round" stroke-linejoin="round"/>
</g>
<defs>
<clipPath id="sclip0_102_20678">
<rect width="24" height="24"/>
</clipPath>
</defs>
</symbol></svg>