<svg width="130" height="32" viewBox="0 0 130 32" fill="none" xmlns="http://www.w3.org/2000/svg">
<path fill-rule="evenodd" clip-rule="evenodd" d="M121.386 31.1062H15.5593C9.85173 30.8594 4.23875 27.8996 1.67719 22.4595C-0.820836 17.5071 -0.264488 10.3772 3.42677 6.06609C7.03379 1.77785 11.9862 0.303864 17.4086 0.173828H130.001L121.386 31.1062ZM128.968 0.900849H18.0691C12.072 0.963651 6.15974 2.56324 2.91549 8.00703C0.0768572 12.4054 0.24753 19.3623 3.17187 23.635C6.09472 28.3281 11.0472 30.2255 16.1696 30.3755H120.768L128.968 0.900849Z" fill="#AAA8A8"/>
<path fill-rule="evenodd" clip-rule="evenodd" d="M27.1112 11.3164H9.50977L11.4492 4.20579C15.7027 2.63723 20.37 3.5534 23.5788 6.32036C26.1455 8.53393 27.027 11.0608 27.1112 11.3164ZM45.7958 6.3839C46.7149 8.34922 45.8246 10.7541 45.2919 12.6094L40.6098 13.3881C40.8448 11.6349 41.8474 9.92886 41.5275 8.00713C41.4204 7.77514 41.1861 7.5594 40.9305 7.49586C39.6501 7.34661 38.8167 8.64771 38.2618 9.54319C36.6844 12.8961 35.4874 16.5866 34.9318 20.3672C34.9112 21.4134 34.5912 22.8822 35.7438 23.3315C36.3209 23.4179 36.7472 23.2243 37.1314 22.8638C38.1554 21.5826 39.223 18.3583 39.223 18.3583C40.8455 18.1234 42.4037 17.8042 44.0041 17.4865C43.065 20.9642 41.7211 25.8073 37.3442 26.5144C35.1247 26.77 32.7345 26.708 31.2391 25.0212C29.3395 22.6702 30.0451 18.956 30.6214 16.2053C31.9233 11.5314 34.4634 4.97567 40.3542 4.37795C42.4451 4.21023 44.7082 4.39937 45.7958 6.3839ZM79.0732 4.59147L77.8985 9.24913H81.0341L80.3514 11.9104H77.1943C77.1943 11.9104 75.9723 16.1314 75.4004 18.1677C74.9645 19.7274 74.4392 21.6063 74.4192 22.8217C75.1234 23.5679 76.3402 23.1002 77.2808 23.2258C77.2143 24.1035 76.8523 24.9746 76.6173 25.8524C74.3328 25.6588 71.1972 26.7094 69.916 24.3592C69.5311 23.6115 69.7675 22.6288 69.916 21.8427C70.7487 18.597 72.6276 11.9112 72.6276 11.9112H71.0922L71.752 9.24986H73.3524C73.758 7.94507 74.5271 5.30002 74.5271 5.30002L79.0732 4.59147ZM106.586 21.2849C106.606 21.7755 106.308 22.354 106.65 22.7825C107.334 23.4608 108.442 23.1637 109.405 23.2258C109.405 23.265 108.846 25.8952 108.846 25.8952C108.846 25.8952 107.223 25.859 106.379 25.8908C104.586 25.9499 102.836 25.8864 102.083 24.0592C101.591 21.1777 103.022 18.5955 103.62 15.9076C104.496 12.472 106.481 5.5069 106.481 5.5069L111.154 4.59147L106.586 21.2849Z" fill="#AAA8A8"/>
<path fill-rule="evenodd" clip-rule="evenodd" d="M8.44283 5.87354C7.43874 9.15916 6.54179 12.4921 5.58129 15.7977C5.40028 16.6902 5.30423 17.7622 5.98692 18.4235C6.49893 18.9385 7.09592 19.2377 7.8222 19.2562H27.3417C26.3959 22.9275 23.2455 25.8954 19.818 27.164C15.9539 28.5959 11.3657 27.8408 8.29136 25.3849C4.4915 22.3298 2.7035 17.8221 3.76891 12.9997C4.34743 10.2911 5.96549 7.62607 8.44283 5.87354ZM70.6193 9.2493C70.6481 9.26851 69.8576 11.8508 69.8517 11.8508C68.1649 11.7215 65.7105 11.273 64.6857 13.0455C64.0037 15.7341 67.8863 16.6503 68.3134 19.0198C68.8269 21.0907 68.3134 23.2681 66.586 24.6157C64.1537 26.7901 60.1167 26.3417 57.151 25.5954C57.1724 25.6028 57.8839 22.8639 57.8758 22.8639C59.6483 23.206 62.7004 23.9722 63.9601 22.0113C64.8135 19.6175 61.7828 18.7213 60.7373 16.9288C59.5832 15.4356 59.8175 13.1319 60.7373 11.5951C62.9339 8.52229 67.2465 8.1573 70.6193 9.2493ZM91.281 9.13996L89.575 11.7651C88.5259 11.6594 87.3977 11.7023 86.4579 12.0214L82.6137 25.8962H78.2154L82.5708 9.97337C84.7726 8.94786 87.2913 8.49938 89.9999 8.77867L91.281 9.13996ZM101.421 10.8888C102.741 13.6003 101.61 16.804 100.8 19.3855C99.8612 21.9869 97.9823 24.9741 95.1201 25.8954C93.1156 26.4495 90.5961 26.5345 88.9108 25.2341C86.6263 23.1432 87.479 19.3626 88.2932 16.9296C89.445 13.4703 92.1965 9.18281 96.2327 8.73433C98.2808 8.69074 100.372 8.94712 101.421 10.8888ZM96.5549 11.7015C96.1463 11.8079 95.7843 12.0636 95.4621 12.4285C93.5441 15.4585 92.1964 19.5658 92.0901 22.5226C92.1292 22.9932 92.3885 23.2843 92.8607 23.2888C93.5493 23.2962 93.8433 22.9696 94.2475 22.5655C96.0251 19.7039 97.389 15.9853 97.5146 12.3613C97.5339 11.7688 96.9997 11.6587 96.5549 11.7015ZM57.9822 10.2283C59.0712 11.5722 58.7092 13.7932 58.2807 15.3492L55.4642 25.4233C54.2909 25.9383 52.8605 26.0232 51.5166 26.256C48.9107 26.516 46.0078 26.4089 44.5567 23.9958C43.8097 22.3105 44.1097 20.046 45.2187 18.6149C47.4404 15.9698 50.6617 15.5413 53.8195 15.0307C54.0766 14.2173 54.3973 13.2383 54.0766 12.362C53.1162 11.1237 51.2173 11.7215 49.8926 11.8508C49.1456 11.9771 48.4858 12.2357 47.7802 12.4285C47.8098 12.4478 48.4422 9.62242 48.4422 9.6106C51.2373 8.58509 55.5728 7.85807 57.9822 10.2283ZM53.0098 17.9196C51.6422 18.1317 49.9583 18.5735 49.1678 20.0061C48.7607 20.8794 48.5701 22.2042 49.317 22.9703C49.8712 23.5045 50.811 23.226 51.5166 23.226L53.0098 17.9196Z" fill="#AAA8A8"/>
<path fill-rule="evenodd" clip-rule="evenodd" d="M13.1432 14.7356C13.3058 14.7356 13.4491 14.6018 13.4639 14.4371L13.4668 14.4009C13.4711 14.3631 13.4673 14.3249 13.4557 14.2887C13.4441 14.2525 13.4248 14.2192 13.3993 14.191C13.3738 14.1628 13.3426 14.1404 13.3077 14.1253C13.2728 14.1101 13.2352 14.1026 13.1971 14.1031H12.3859C12.3055 14.105 12.2286 14.1364 12.1699 14.1913C12.1112 14.2462 12.0747 14.3208 12.0675 14.4009L12.0638 14.4371C12.0595 14.4748 12.0632 14.5129 12.0748 14.549C12.0863 14.5852 12.1054 14.6184 12.1307 14.6466C12.1561 14.6748 12.1871 14.6974 12.2218 14.7127C12.2565 14.728 12.294 14.7358 12.332 14.7356H13.1432ZM12.6312 16.4844C12.7937 16.4844 12.9356 16.3514 12.9511 16.1859L12.9541 16.1512C12.9585 16.1133 12.9549 16.0748 12.9435 16.0384C12.9321 16.0019 12.9131 15.9683 12.8878 15.9397C12.8625 15.9111 12.8314 15.8882 12.7966 15.8724C12.7618 15.8567 12.7241 15.8484 12.6859 15.8483H11.8739C11.7928 15.8512 11.7156 15.8836 11.6567 15.9393C11.5978 15.9951 11.5613 16.0704 11.554 16.1512L11.551 16.1859C11.5465 16.2236 11.5501 16.2619 11.5615 16.2981C11.573 16.3344 11.592 16.3677 11.6174 16.396C11.6428 16.4242 11.674 16.4468 11.7088 16.462C11.7436 16.4773 11.7812 16.4849 11.8192 16.4844H12.6312ZM11.5148 15.5498C11.6227 15.5498 11.7165 15.4471 11.7261 15.3178L11.7276 15.2941C11.7379 15.1648 11.6581 15.0621 11.551 15.0621H11.0124C10.9053 15.0621 10.8114 15.1648 10.8011 15.2941L10.8003 15.3178C10.7893 15.4471 10.8705 15.5498 10.9769 15.5498H11.5148ZM12.0224 13.8238C12.1303 13.8238 12.2248 13.7175 12.2344 13.5919L12.2366 13.5638C12.2463 13.4382 12.1665 13.3355 12.0586 13.3355H11.5222C11.4128 13.3355 11.319 13.4382 11.3109 13.5638L11.3079 13.5919C11.2991 13.7175 11.3789 13.8238 11.4845 13.8238H12.0224ZM11.0094 17.3031C11.1166 17.3031 11.2104 17.2004 11.2207 17.0748L11.2222 17.0459C11.2326 16.9218 11.1528 16.8191 11.0449 16.8191H10.507C10.4006 16.8191 10.3061 16.9218 10.2957 17.0459L10.2942 17.0748C10.2854 17.2004 10.3652 17.3031 10.4723 17.3031H11.0094ZM10.541 14.6772C10.6489 14.6772 10.7434 14.5753 10.7523 14.4489L10.7538 14.4216C10.7627 14.296 10.6836 14.1933 10.5772 14.1933H10.0393C9.9322 14.1933 9.83837 14.2952 9.82728 14.4216L9.82655 14.4489C9.81694 14.5753 9.896 14.6772 10.0046 14.6772H10.541ZM10.0349 16.4342C10.1428 16.4342 10.2373 16.3315 10.2462 16.2059L10.2484 16.1785C10.258 16.0529 10.1782 15.9465 10.0711 15.9465H9.53396C9.42683 15.9465 9.33152 16.0537 9.32265 16.1785L9.32044 16.2059C9.31157 16.3315 9.39063 16.4342 9.49702 16.4342H10.0349ZM9.10026 15.5409C9.20813 15.5409 9.30197 15.439 9.31231 15.3134L9.31305 15.2853C9.32413 15.1597 9.2436 15.054 9.13647 15.054H8.59859C8.49072 15.054 8.39689 15.1604 8.38728 15.2853L8.3858 15.3134C8.37546 15.439 8.45599 15.5409 8.56386 15.5409H9.10026ZM9.60859 13.8165C9.71646 13.8165 9.80955 13.7145 9.81989 13.5852L9.82211 13.5616C9.83098 13.4315 9.75118 13.3296 9.64331 13.3296H9.10617C8.99904 13.3296 8.90447 13.4315 8.89487 13.5616L8.89339 13.5852C8.88304 13.7145 8.96284 13.8165 9.07145 13.8165H9.60859ZM8.5949 17.2986C8.70203 17.2986 8.7966 17.1959 8.80547 17.0666L8.80842 17.0393C8.81729 16.9137 8.73749 16.811 8.63036 16.811H8.09248C7.98535 16.811 7.89004 16.9137 7.88117 17.0393L7.8797 17.0666C7.87009 17.1967 7.94915 17.2986 8.05628 17.2986H8.5949ZM14.5404 14.842H13.7934C13.5222 14.842 13.2836 15.0348 13.2599 15.2742L13.2555 15.3252C13.2319 15.5609 13.4336 15.7567 13.7032 15.7567H14.2544L14.5404 14.842ZM13.9803 16.5916H13.2865C13.0154 16.5916 12.7767 16.7836 12.7531 17.023L12.7487 17.0703C12.725 17.3097 12.9252 17.5033 13.1964 17.5033H13.7121L13.9803 16.5916ZM15.113 13.136H14.3675C14.0963 13.136 13.8577 13.3288 13.834 13.5682L13.8289 13.6155C13.8052 13.8556 14.0062 14.0477 14.2766 14.0477H14.793L15.113 13.136Z" fill="#AAA8A8"/>
<path fill-rule="evenodd" clip-rule="evenodd" d="M14.2558 15.7575H15.0619C15.3323 15.7575 15.5717 15.561 15.5946 15.326L15.6005 15.275C15.6234 15.0357 15.4224 14.8428 15.1527 14.8428H14.5417L14.7944 14.0759H15.6345C15.9056 14.0759 16.145 13.8831 16.1679 13.6437L16.1731 13.5927C16.1967 13.357 16.0068 13.1568 15.735 13.1568L27.6724 13.1523C28.2236 15.6445 27.7796 17.5041 27.7796 17.5041H14.5528C14.8254 17.5041 15.0633 17.3105 15.087 17.0712L15.0922 17.0239C15.1158 16.7845 14.9156 16.5924 14.6444 16.5924H13.9824L14.2558 15.7575ZM15.8724 15.9348C15.7187 15.9348 15.5857 16.0331 15.5717 16.1587L15.5687 16.1816C15.5547 16.3087 15.6692 16.4069 15.8214 16.4069H16.5861C16.7383 16.4069 16.8728 16.3087 16.8868 16.1816L16.8898 16.1587C16.9038 16.0331 16.7893 15.9348 16.6363 15.9348H15.8724ZM16.4073 14.2015C16.2544 14.2015 16.1206 14.2998 16.1081 14.4217L16.1044 14.449C16.0918 14.5754 16.2041 14.6736 16.3578 14.6736H17.121C17.2732 14.6736 17.4092 14.5754 17.4217 14.449L17.4247 14.4217C17.4387 14.2998 17.3249 14.2015 17.172 14.2015H16.4073ZM17.6737 15.1132C17.571 15.1132 17.4816 15.1915 17.4735 15.2861L17.472 15.3061C17.4631 15.3999 17.5377 15.479 17.639 15.479H18.1451C18.2455 15.479 18.3357 15.3999 18.3431 15.3061L18.346 15.2861C18.3542 15.1923 18.2795 15.1132 18.1776 15.1132H17.6737ZM17.1949 16.831C17.1463 16.8306 17.0992 16.8479 17.0625 16.8798C17.0257 16.9116 17.0019 16.9558 16.9954 17.0039L16.9932 17.0224C16.9843 17.1177 17.059 17.1916 17.1617 17.1916H17.667C17.7682 17.1916 17.8569 17.1177 17.8665 17.0224L17.868 17.0039C17.8776 16.9057 17.803 16.831 17.7018 16.831H17.1949ZM18.1842 13.4471C18.0837 13.4471 17.9951 13.5218 17.9847 13.6163L17.984 13.6355C17.9751 13.7338 18.0497 13.8084 18.151 13.8084H18.6563C18.7052 13.8094 18.7526 13.7922 18.7896 13.7603C18.8265 13.7284 18.8504 13.684 18.8566 13.6355L18.8573 13.6163C18.8662 13.5218 18.7915 13.4471 18.6896 13.4471H18.1842ZM18.8211 16.0287C18.7191 16.0287 18.6297 16.1077 18.6216 16.2015L18.6201 16.2222C18.6113 16.3161 18.6859 16.3951 18.7871 16.3951H19.2932C19.3937 16.3951 19.4838 16.3161 19.492 16.2222L19.4949 16.2023C19.503 16.1084 19.4284 16.0294 19.3265 16.0294L18.8211 16.0287ZM19.3139 14.2724C19.2142 14.2724 19.1248 14.3507 19.1144 14.4416L19.1137 14.4653C19.1033 14.5591 19.1809 14.6345 19.2807 14.6345H19.7853C19.8865 14.6345 19.9766 14.5598 19.9855 14.4653L19.9885 14.4416C19.9966 14.3515 19.922 14.2724 19.82 14.2724H19.3139ZM20.42 15.1332C20.3195 15.1332 20.2301 15.2115 20.2219 15.3061L20.219 15.326C20.2109 15.4199 20.2847 15.4989 20.386 15.4989H20.8921C20.994 15.4989 21.0827 15.4206 21.0908 15.326L21.0938 15.3061C21.1026 15.2122 21.028 15.1332 20.9268 15.1332H20.42ZM19.9434 16.8502C19.8422 16.8502 19.7528 16.9293 19.7439 17.0231L19.7417 17.0431C19.7321 17.1369 19.8075 17.216 19.9094 17.216H20.4155C20.4639 17.2159 20.5107 17.1984 20.5472 17.1666C20.5837 17.1349 20.6075 17.091 20.6143 17.0431L20.6165 17.0231C20.6253 16.9293 20.5507 16.8502 20.4488 16.8502H19.9434ZM20.9334 13.4663C20.8315 13.4663 20.7421 13.541 20.7332 13.6355L20.7325 13.6592C20.7229 13.7538 20.7982 13.8284 20.8995 13.8284H21.4048C21.4529 13.8291 21.4996 13.8123 21.5363 13.7812C21.573 13.7501 21.5972 13.7068 21.6043 13.6592L21.6058 13.6355C21.6147 13.5417 21.5393 13.4663 21.4388 13.4663H20.9334Z" fill="#AAA8A8"/>
</svg>
