<svg width="101" height="22" viewBox="0 0 101 22" fill="none" xmlns="http://www.w3.org/2000/svg">
<path fill-rule="evenodd" clip-rule="evenodd" d="M10.1177 12.1683C10.1177 12.1683 14.1648 6.61104 14.1648 4.25891C14.1648 1.90678 12.3529 0 10.1177 0C7.88259 0 6.07064 1.90678 6.07064 4.25891C6.07064 6.61104 10.1177 12.1683 10.1177 12.1683ZM15.5649 8.72529C16.3864 7.39015 17.0508 5.96947 17.3217 4.58933C17.9206 5.18964 18.4391 5.87302 18.877 6.63949C19.7826 8.17269 20.2354 9.90465 20.2354 11.8354C20.2354 13.785 19.7826 15.5359 18.877 17.088C17.9902 18.6212 16.7732 19.8232 15.2261 20.6939C13.679 21.5646 11.9809 21.9999 10.1319 21.9999C8.28285 21.9999 6.58477 21.5646 5.03763 20.6939C3.49049 19.8232 2.2641 18.6212 1.35846 17.088C0.452821 15.5359 0 13.785 0 11.8354C0 9.90465 0.452821 8.17269 1.35846 6.63949C1.8014 5.88036 2.32106 5.20273 2.91744 4.60661C3.19047 5.98121 3.85264 7.39551 4.6707 8.72499C4.27383 9.62906 4.07539 10.6658 4.07539 11.8354C4.07539 13.1603 4.3301 14.3244 4.83952 15.3277C5.34895 16.3309 6.05648 17.1069 6.96212 17.6559C7.88663 18.1859 8.94321 18.4509 10.1319 18.4509C11.3205 18.4509 12.3677 18.1859 13.2733 17.6559C14.179 17.1069 14.8865 16.3309 15.3959 15.3277C15.9053 14.3244 16.16 13.1603 16.16 11.8354C16.16 10.666 15.9616 9.62929 15.5649 8.72529Z" fill="#EE6D2F"/>
<path d="M30.6901 6.75325C32.2927 6.75325 33.5878 7.26432 34.5753 8.28646C35.5628 9.29237 36.0565 10.7039 36.0565 12.521V20.4304H32.657V12.9834C32.657 11.9126 32.3899 11.0933 31.8556 10.5254C31.3214 9.94135 30.593 9.64931 29.6702 9.64931C28.7313 9.64931 27.9866 9.94135 27.4362 10.5254C26.902 11.0933 26.6349 11.9126 26.6349 12.9834V20.4304H23.2354V6.94795H26.6349V8.62717C27.0882 8.04309 27.6629 7.58881 28.359 7.26432C29.0712 6.92361 29.8483 6.75325 30.6901 6.75325Z" fill="white"/>
<path d="M45.2143 3.44347C46.995 3.44347 48.5571 3.7923 49.9008 4.48995C51.2606 5.1876 52.3047 6.1854 53.0332 7.48335C53.7779 8.76508 54.1502 10.2577 54.1502 11.9613C54.1502 13.6648 53.7779 15.1575 53.0332 16.4392C52.3047 17.7047 51.2606 18.6863 49.9008 19.384C48.5571 20.0816 46.995 20.4304 45.2143 20.4304H39.2893V3.44347H45.2143ZM45.0928 17.5344C46.8736 17.5344 48.2496 17.0476 49.2209 16.0742C50.1922 15.1007 50.6778 13.7297 50.6778 11.9613C50.6778 10.1928 50.1922 8.81375 49.2209 7.82406C48.2496 6.81815 46.8736 6.31519 45.0928 6.31519H42.6889V17.5344H45.0928Z" fill="white"/>
<path d="M60.0945 9.04089C60.5316 8.32702 61.0982 7.76728 61.7943 7.36167C62.5066 6.95606 63.316 6.75325 64.2225 6.75325V10.3307H63.3241C62.2556 10.3307 61.4462 10.5822 60.8958 11.0852C60.3616 11.5881 60.0945 12.4642 60.0945 13.7135V20.4304H56.695V6.94795H60.0945V9.04089Z" fill="white"/>
<path d="M68.2364 5.34173C67.6374 5.34173 67.1355 5.15515 66.7308 4.78199C66.3423 4.3926 66.1481 3.91398 66.1481 3.34613C66.1481 2.77827 66.3423 2.30776 66.7308 1.9346C67.1355 1.54522 67.6374 1.35052 68.2364 1.35052C68.8353 1.35052 69.3291 1.54522 69.7176 1.9346C70.1223 2.30776 70.3246 2.77827 70.3246 3.34613C70.3246 3.91398 70.1223 4.3926 69.7176 4.78199C69.3291 5.15515 68.8353 5.34173 68.2364 5.34173ZM69.9118 6.94795V20.4304H66.5123V6.94795H69.9118Z" fill="white"/>
<path d="M78.8799 17.291L82.2794 6.94795H85.8975L80.9196 20.4304H76.7916L71.8379 6.94795H75.4803L78.8799 17.291Z" fill="white"/>
<path d="M100.312 13.3971C100.312 13.8839 100.28 14.3219 100.215 14.7113H90.3809C90.4618 15.6848 90.8018 16.4473 91.4007 16.999C91.9997 17.5506 92.7363 17.8264 93.6104 17.8264C94.8731 17.8264 95.7716 17.2829 96.3058 16.1959H99.9725C99.5839 17.4938 98.8393 18.5646 97.7385 19.4083C96.6377 20.2357 95.2859 20.6495 93.6833 20.6495C92.3882 20.6495 91.2227 20.3655 90.1866 19.7977C89.1667 19.2136 88.3654 18.3943 87.7826 17.3397C87.2161 16.2851 86.9328 15.0683 86.9328 13.6892C86.9328 12.2939 87.2161 11.0689 87.7826 10.0144C88.3492 8.95977 89.1425 8.14855 90.1623 7.5807C91.1822 7.01284 92.3558 6.72892 93.6833 6.72892C94.9622 6.72892 96.1034 7.00473 97.1071 7.55636C98.127 8.10799 98.9121 8.89487 99.4625 9.91701C100.029 10.9229 100.312 12.083 100.312 13.3971ZM96.7915 12.4237C96.7753 11.5476 96.4596 10.8499 95.8444 10.3307C95.2293 9.79533 94.4765 9.52763 93.5862 9.52763C92.7444 9.52763 92.0321 9.78722 91.4493 10.3064C90.8827 10.8094 90.5347 11.5151 90.4052 12.4237H96.7915Z" fill="white"/>
</svg>
