<svg width="91" height="42" viewBox="0 0 91 42" fill="none" xmlns="http://www.w3.org/2000/svg">
<path fill-rule="evenodd" clip-rule="evenodd" d="M84.8231 24.7662V0.516602H79.7053V24.7662H84.8231ZM37.3003 25.5922C42.5349 25.5922 46.7783 21.3487 46.7783 16.1141C46.7783 10.8795 42.5349 6.63608 37.3003 6.63608C32.0657 6.63608 27.8223 10.8795 27.8223 16.1141C27.8223 21.3487 32.0657 25.5922 37.3003 25.5922Z" fill="#AAA8A8"/>
<path fill-rule="evenodd" clip-rule="evenodd" d="M37.2985 20.4223C37.8643 20.4222 38.4246 20.3107 38.9473 20.0941C39.47 19.8775 39.945 19.5601 40.345 19.1599C40.7451 18.7598 41.0624 18.2848 41.2788 17.762C41.4953 17.2392 41.6067 16.6789 41.6066 16.1131C41.6065 15.5473 41.495 14.987 41.2784 14.4643C41.0618 13.9415 40.7444 13.4666 40.3443 13.0665C39.9441 12.6665 39.4691 12.3492 38.9463 12.1327C38.4235 11.9162 37.8632 11.8049 37.2974 11.8049C36.1547 11.8051 35.0588 12.2592 34.2509 13.0673C33.4429 13.8754 32.9891 14.9714 32.9893 16.1141C32.9894 17.2569 33.4435 18.3527 34.2516 19.1607C35.0597 19.9686 36.1557 20.4224 37.2985 20.4223Z" fill="white"/>
<path fill-rule="evenodd" clip-rule="evenodd" d="M58.7471 6.63608C57.1093 6.63608 55.6252 7.25371 54.3595 8.16964V0.516602H49.2422V24.7657H54.3595V23.703C55.6252 24.8314 57.1093 25.5916 58.7471 25.5916C63.9811 25.5916 68.2251 21.3482 68.2251 16.1136C68.2251 10.879 63.9811 6.63608 58.7471 6.63608Z" fill="#AAA8A8"/>
<path fill-rule="evenodd" clip-rule="evenodd" d="M58.745 20.4223C59.3108 20.4222 59.8711 20.3106 60.3938 20.094C60.9165 19.8774 61.3915 19.5599 61.7915 19.1598C62.1915 18.7596 62.5088 18.2845 62.7252 17.7617C62.9417 17.2389 63.053 16.6786 63.0529 16.1128C63.0528 15.547 62.9412 14.9867 62.7246 14.464C62.508 13.9413 62.1905 13.4664 61.7904 13.0664C61.3902 12.6663 60.9151 12.349 60.3924 12.1326C59.8696 11.9162 59.3093 11.8048 58.7434 11.8049C57.6007 11.8051 56.5049 12.2593 55.697 13.0675C54.8891 13.8757 54.4353 14.9717 54.4355 16.1144C54.4358 17.2571 54.8899 18.353 55.6981 19.1609C56.5063 19.9688 57.6023 20.4225 58.745 20.4223Z" fill="white"/>
<path fill-rule="evenodd" clip-rule="evenodd" d="M17.5443 0.516846L13.043 16.0333L8.54234 0.516846H0.5V24.7664H5.6178V7.57066L10.6136 24.7664H15.4725L19.9964 8.02783V24.7664H25.1142V0.516846H17.5443ZM75.9276 5.5126V0.516846H70.8098V5.5126H75.9276ZM70.8098 7.09718V24.7664H75.9276V7.09718H70.8098ZM20.0379 41.1626C22.782 41.1626 25.0074 38.9377 25.0074 36.1936C25.0074 33.4496 22.7825 31.2237 20.0379 31.2237C17.2933 31.2237 15.0685 33.449 15.0685 36.1936C15.0685 38.9383 17.2933 41.1626 20.0379 41.1626Z" fill="#AAA8A8"/>
<path fill-rule="evenodd" clip-rule="evenodd" d="M20.0385 38.4515C20.3402 38.4593 20.6404 38.4067 20.9213 38.2967C21.2023 38.1866 21.4584 38.0214 21.6745 37.8108C21.8906 37.6002 22.0623 37.3485 22.1796 37.0704C22.2968 36.7923 22.3571 36.4936 22.357 36.1919C22.3569 35.8901 22.2964 35.5914 22.1789 35.3135C22.0615 35.0355 21.8896 34.7838 21.6734 34.5734C21.4571 34.3629 21.2009 34.1979 20.9199 34.0881C20.6388 33.9783 20.3386 33.9258 20.037 33.9339C19.4482 33.9497 18.8889 34.1947 18.4782 34.6167C18.0674 35.0388 17.8377 35.6045 17.8379 36.1935C17.8381 36.7824 18.0682 37.348 18.4793 37.7697C18.8903 38.1915 19.4498 38.4361 20.0385 38.4515Z" fill="white"/>
<path fill-rule="evenodd" clip-rule="evenodd" d="M36.405 41.1625C39.1491 41.1625 41.3744 38.9377 41.3744 36.1936C41.3744 33.4495 39.1496 31.2236 36.405 31.2236C33.6604 31.2236 31.4355 33.449 31.4355 36.1936C31.4355 38.9382 33.6609 41.1625 36.405 41.1625Z" fill="#AAA8A8"/>
<path fill-rule="evenodd" clip-rule="evenodd" d="M36.4051 38.4512C36.9958 38.4384 37.558 38.1948 37.9713 37.7726C38.3845 37.3503 38.6159 36.783 38.6159 36.1921C38.6159 35.6013 38.3845 35.034 37.9713 34.6117C37.558 34.1895 36.9958 33.9459 36.4051 33.9331C35.8144 33.9459 35.2522 34.1895 34.839 34.6117C34.4257 35.034 34.1943 35.6013 34.1943 36.1921C34.1943 36.783 34.4257 37.3503 34.839 37.7726C35.2522 38.1948 35.8144 38.4384 36.4051 38.4512Z" fill="white"/>
<path fill-rule="evenodd" clip-rule="evenodd" d="M61.0204 41.1626C64.6825 41.1626 67.6512 38.1938 67.6512 34.5317C67.6512 30.8696 64.6825 27.9009 61.0204 27.9009C57.3582 27.9009 54.3895 30.8696 54.3895 34.5317C54.3895 38.1938 57.3582 41.1626 61.0204 41.1626ZM9.43617 28.015L7.07613 36.15L4.71609 28.015H0.5V40.7285H3.18306V31.7135L5.80246 40.7285H8.35032L10.7219 31.9528V40.7285H13.405V28.015H9.43617ZM71.7868 30.6344V28.015H69.1043V30.6344H71.7868ZM69.1043 31.4646V40.7285H71.7868V31.4646H69.1043ZM73.777 28.015V40.7285H76.4611V28.015H73.777ZM31.1663 31.4757H29.5854V28.6295H26.9018V31.4757H25.3209V33.8688H26.9018V40.7285H29.5854V33.8688H31.1663V31.4757ZM47.9013 31.2652C47.0516 31.2652 46.061 31.7503 45.5449 32.5989V31.4646H42.8618V40.7285H45.5449V35.4555C46.1183 33.5064 48.4694 33.8652 48.4694 33.8652V31.2658L47.9013 31.2652Z" fill="#AAA8A8"/>
<path fill-rule="evenodd" clip-rule="evenodd" d="M61.0202 38.2987C63.1009 38.2987 64.787 36.6126 64.787 34.5319C64.7953 34.032 64.7041 33.5355 64.5186 33.0712C64.3331 32.6069 64.057 32.1842 63.7064 31.8278C63.3558 31.4713 62.9378 31.1882 62.4767 30.9949C62.0156 30.8017 61.5207 30.7021 61.0207 30.7021C60.5207 30.7021 60.0258 30.8017 59.5647 30.9949C59.1036 31.1882 58.6856 31.4713 58.335 31.8278C57.9845 32.1842 57.7084 32.6069 57.5228 33.0712C57.3373 33.5355 57.2461 34.032 57.2544 34.5319C57.2544 35.0265 57.3517 35.5163 57.5409 35.9732C57.7301 36.4302 58.0075 36.8454 58.3572 37.1952C58.7069 37.545 59.122 37.8225 59.5789 38.0118C60.0359 38.2012 60.5256 38.2986 61.0202 38.2987Z" fill="white"/>
<path fill-rule="evenodd" clip-rule="evenodd" d="M85.9297 3.1952C85.9297 1.79791 87.0629 0.767822 88.4018 0.767822C89.7281 0.767822 90.8618 1.79791 90.8618 3.1952C90.8618 4.60512 89.7286 5.63521 88.4018 5.63521C87.0629 5.63521 85.9297 4.60512 85.9297 3.1952Z" fill="#AAA8A8"/>
<path fill-rule="evenodd" clip-rule="evenodd" d="M88.4013 5.22901C89.503 5.22901 90.3721 4.36622 90.3721 3.19462C90.3721 2.04195 89.503 1.17285 88.4013 1.17285C87.2876 1.17285 86.418 2.04195 86.418 3.19462C86.4185 4.36622 87.2876 5.22901 88.4013 5.22901Z" fill="white"/>
<path fill-rule="evenodd" clip-rule="evenodd" d="M87.8865 4.60531H87.4609V1.7981H88.5305C89.1934 1.7981 89.5222 2.04273 89.5222 2.5967C89.5222 3.09912 89.2065 3.31797 88.7946 3.36953L89.5932 4.60584H89.1165L88.3758 3.38899H87.8865V4.60531Z" fill="#AAA8A8"/>
<path fill-rule="evenodd" clip-rule="evenodd" d="M88.3974 3.02804C88.7583 3.02804 89.0797 3.00226 89.0797 2.57086C89.0797 2.22312 88.7641 2.15894 88.4684 2.15894H87.8887V3.02804H88.3974Z" fill="white"/>
<path fill-rule="evenodd" clip-rule="evenodd" d="M85.188 34.1486H82.7506C82.7506 34.1486 82.8317 33.2558 81.7753 33.2558C81.2881 33.2558 80.8825 33.4994 80.8825 33.905C80.8825 35.4896 85.5126 34.5453 85.5126 38.008C85.5126 40.1608 83.726 41.2171 81.8168 41.2171C79.9076 41.2171 77.7549 40.3233 77.7549 37.8859H80.3543C80.3543 37.8859 80.4753 39.227 81.6543 39.227C82.3035 39.227 82.7506 38.6577 82.7506 38.1706C82.7506 36.8706 78.0795 37.4803 78.0795 34.1902C78.0795 32.1184 80.0697 31.3472 81.7353 31.3472C83.3998 31.3461 85.188 31.9958 85.188 34.1486Z" fill="#AAA8A8"/>
</svg>
