<svg width="114" height="32" viewBox="0 0 114 32" fill="none" xmlns="http://www.w3.org/2000/svg">
<g clip-path="url(#clip0_37_32298)">
<path d="M0.658203 0.400879H113.819V31.3332H0.658203V0.400879Z" fill="#AAA8A8"/>
<path d="M32.4155 5.55644V26.178H25.2495L25.6104 17.2076L21.6923 26.178H16.8978L15.5574 17.053L13.2374 26.178H5.86523L11.897 5.55644H19.6817L20.919 13.9082L24.4246 5.55644H32.4155ZM72.7307 12.1038L69.4828 11.9491L67.8331 26.178H59.9969L61.8012 12.0007L58.8111 12.1038L53.8104 5.55644H73.4009L72.7307 12.1038ZM82.6806 5.55644L81.2371 18.3418C81.1855 19.1151 81.5464 19.8884 82.2166 20.1978C82.9383 20.4555 83.8148 20.3524 84.3819 19.8369C84.8458 19.4244 85.0521 18.8573 85.1552 18.2387L86.908 5.50488H94.3833L92.7851 19.6307C92.4243 21.6413 91.4963 23.5488 89.6919 24.8376C87.1142 26.6935 83.6601 27.0029 80.3091 26.5389C77.6798 26.0749 74.6382 24.3221 73.7617 21.6413C73.4009 20.6617 73.4524 19.476 73.4524 18.4449L74.999 5.55644H82.6806ZM102.529 19.6307H108.664L106.859 26.178H93.7647L96.497 5.55644H104.282L102.529 19.6307Z" fill="white"/>
<path d="M46.5409 11.949C44.8912 11.7428 43.293 12.5161 42.4681 13.9596C41.7464 15.1969 41.5917 16.8982 42.3135 18.1871C42.829 19.2697 43.9632 19.9914 45.0974 20.0946C46.644 20.2492 47.9844 19.4759 48.7577 18.1871C49.5826 17.0013 49.6341 15.0423 48.9639 13.7534C48.603 12.8255 47.572 12.1553 46.5409 11.949ZM51.2838 6.32966L52.0571 6.94831L56.6454 12.8255C57.161 13.805 57.161 15.0938 57.1094 16.2796C57.0579 20.2492 54.4802 23.9095 50.8714 25.5593C46.4893 27.6214 40.6122 26.6419 37.1581 23.2393C34.1164 20.3523 33.4977 15.4547 35.0959 11.6913C36.9519 7.5154 41.3339 4.88615 45.8191 5.09237C47.7782 5.14392 49.6341 5.5048 51.2838 6.32966Z" fill="white"/>
</g>
<defs>
<clipPath id="clip0_37_32298">
<rect width="113.222" height="30.9324" fill="white" transform="translate(0.62793 0.400879)"/>
</clipPath>
</defs>
</svg>
