<svg width="118" height="27" viewBox="0 0 118 27" fill="none" xmlns="http://www.w3.org/2000/svg">
<path fill-rule="evenodd" clip-rule="evenodd" d="M109.208 25.9783V1.13402H117.217V25.9783H109.208ZM94.0511 25.9783V1.13402H102.06V25.9783H94.0511ZM89.1427 17.9835H70.5392V18.3277C70.5392 18.5859 70.5392 18.8432 70.6246 19.1014C70.6246 19.3596 70.7116 19.6169 70.7978 19.8734C70.8832 20.1315 71.0565 20.4758 71.3143 20.7339C71.4859 20.9921 71.6592 21.2494 71.9161 21.5076C72.1748 21.7658 72.5196 21.937 72.8645 22.1083C73.2077 22.2813 73.5534 22.4525 73.9837 22.6238C74.3285 22.7107 74.6725 22.7968 75.0174 22.7968C75.4476 22.882 75.7925 22.882 76.1374 22.882H76.2228C76.4814 22.882 76.8263 22.882 77.1694 22.7968C77.5143 22.7968 77.8601 22.7099 78.1179 22.6238C78.461 22.5386 78.8067 22.4525 79.0645 22.2813C79.3232 22.1944 79.581 22.0231 79.8397 21.8501C79.925 21.6789 80.0983 21.5076 80.2699 21.3355C80.357 21.1625 80.5285 20.9912 80.6148 20.7331V20.6462C80.6148 20.561 80.7001 20.561 80.7001 20.4749H88.6245C88.5374 20.5618 88.5374 20.7331 88.4512 20.8191C88.4512 20.8191 88.4512 20.9043 88.3659 20.9904C88.2572 21.2931 88.1122 21.5815 87.9339 21.8493C87.6753 22.1935 87.4175 22.4517 87.1588 22.7959C86.8156 23.2253 86.3837 23.5696 85.9534 23.913C85.5232 24.2572 85.0068 24.5154 84.5765 24.8596C83.8876 25.2021 83.2841 25.4603 82.5961 25.7185C81.821 25.9767 81.0458 26.1479 80.2699 26.3209C79.581 26.4061 78.893 26.5791 78.1179 26.5791C77.4273 26.6643 76.7392 26.6643 76.0503 26.6643H75.8787C75.1036 26.6643 74.2414 26.6643 73.4663 26.5791C72.7774 26.4921 72.0023 26.3209 71.3143 26.2348C70.2805 25.9766 69.3338 25.6324 68.4717 25.2899C67.6099 24.8542 66.7758 24.3662 65.9739 23.8286C65.3864 23.3277 64.8395 22.7813 64.3383 22.1944C63.9064 21.6789 63.4761 20.9912 63.2183 20.3036C62.9597 19.7881 62.7881 19.1857 62.6165 18.5842C62.5294 17.9818 62.4432 17.3794 62.4432 16.6918C62.4432 16.0911 62.5303 15.4017 62.6165 14.715C62.7881 14.1143 62.9597 13.5119 63.2183 12.9095C63.5632 12.2219 63.9934 11.6212 64.5108 11.0188C65.0272 10.3311 65.6299 9.81565 66.3196 9.2993C66.9688 8.80847 67.6607 8.37673 68.3872 8.00928C69.1418 7.67074 69.9184 7.38324 70.7116 7.14871C71.4867 6.97744 72.2618 6.80618 73.0378 6.71927C73.8983 6.63236 74.7605 6.548 75.5356 6.548H75.8804C76.7409 6.548 77.6031 6.63321 78.4627 6.71927C79.3249 6.89053 80.1854 7.0635 80.9605 7.23476C81.8227 7.49294 82.7694 7.83717 83.5445 8.2666C84.3196 8.69604 85.0947 9.12548 85.7836 9.72788C86.3854 10.2434 86.9889 10.8458 87.5062 11.6203C87.9365 12.3079 88.2813 12.9947 88.54 13.8536C88.7116 14.3708 88.8849 14.8871 88.9702 15.4878C89.0573 16.0902 89.1435 16.6909 89.1435 17.3785V17.5515L89.1427 17.9835ZM81.4761 14.2873H70.6237V14.0291C70.6237 13.9422 70.6237 13.9422 70.7108 13.8561C70.7108 13.6848 70.7978 13.5136 70.7978 13.3415C70.8832 13.0816 70.9694 12.9103 71.0565 12.7391C71.2281 12.5678 71.3152 12.3096 71.4867 12.1367C71.66 11.8802 71.917 11.7072 72.0903 11.536C72.3489 11.2778 72.6921 11.1065 73.037 10.9336C73.2956 10.7623 73.6388 10.591 73.9837 10.5041L75.0174 10.2459H76.1374C76.5676 10.2459 76.9979 10.2459 77.3427 10.3328C77.773 10.4181 78.1178 10.5041 78.4619 10.6754C78.8067 10.7623 79.0654 10.8483 79.324 11.0196C79.6672 11.1909 79.9259 11.449 80.0992 11.622C80.3578 11.7933 80.4423 11.9645 80.6156 12.1367C80.7872 12.3096 80.8743 12.4809 81.0459 12.7391C81.1312 12.9103 81.2174 13.0816 81.3045 13.3415C81.3899 13.5127 81.3899 13.7709 81.4761 13.9422V14.2873ZM41.0842 1.13402V9.47312L41.4291 9.12889C41.5153 9.12889 41.5153 9.04368 41.6015 9.04368C41.9455 8.78551 42.2904 8.52818 42.6344 8.35607C43.0762 8.09305 43.5367 7.86267 44.0122 7.66676C44.6157 7.40859 45.1322 7.23732 45.6486 7.06606C46.1651 6.89309 46.6824 6.80788 47.2851 6.72182C47.7153 6.63491 48.2326 6.55056 48.7491 6.46365H50.2993C50.8157 6.46365 51.4193 6.55056 51.9357 6.63492C52.4522 6.72183 52.9695 6.89309 53.4859 7.06606C54.0015 7.23732 54.6051 7.4955 55.0353 7.83973C55.5518 8.18226 56.0691 8.61339 56.4993 9.04283C56.8442 9.47226 57.1882 9.98776 57.4468 10.4172C57.7055 10.8483 57.8771 11.3638 57.9625 11.7933C58.0495 12.2227 58.1349 12.6522 58.1349 13.0816C58.2211 13.5988 58.2211 14.1995 58.2211 14.7158V25.9775H50.47V15.6616C50.47 15.3191 50.3838 14.8897 50.3838 14.5446V13.9422C50.3838 13.684 50.2976 13.3415 50.126 13.0816L49.6095 12.3096C49.3509 12.0515 49.0922 11.8802 48.8336 11.7072C48.5758 11.536 48.3171 11.3647 47.9723 11.2778C47.7136 11.1909 47.3687 11.1065 47.1109 11.1065C46.7661 11.0196 46.5083 11.0196 46.2496 11.0196H46.0772C45.8185 11.0196 45.4745 11.1065 45.1296 11.1065C44.871 11.1917 44.6132 11.2778 44.3545 11.3647C44.0096 11.4499 43.6656 11.6229 43.407 11.7941C43.0629 12.0523 42.8043 12.3096 42.4594 12.5678L41.6843 13.5996C41.5119 13.9422 41.3394 14.2873 41.2532 14.7167C41.167 14.9749 41.167 15.2322 41.167 15.4043C41.0808 15.7485 41.0808 16.0936 41.0808 16.4361V25.9783H33.0719V1.13402H41.0842ZM27.5625 8.61425H19.2949V8.35607V8.18311C19.2949 7.92494 19.2949 7.66761 19.2087 7.49549C19.1225 7.23732 19.0363 7.06606 18.9501 6.80789C18.8496 6.59916 18.7343 6.39785 18.6052 6.20548C18.4327 6.03422 18.2603 5.86124 18.0025 5.68998C17.8065 5.49861 17.5712 5.35208 17.3128 5.26054C17.055 5.08928 16.7963 5.00237 16.5377 4.91632L15.5039 4.65814C15.1599 4.57293 14.815 4.57294 14.471 4.57294H13.5226C13.1786 4.57294 12.9199 4.65813 12.575 4.74419C12.2302 4.74419 11.9715 4.83111 11.6275 5.00237C11.3697 5.08928 11.111 5.26054 10.7662 5.3466C10.5937 5.51786 10.3359 5.68913 10.1635 5.86124C9.90484 6.03421 9.73325 6.20548 9.64704 6.46365C9.4746 6.63491 9.38838 6.89309 9.30216 7.06606C9.21595 7.32253 9.12973 7.58156 9.12973 7.83973C9.12973 8.01099 9.21595 8.26916 9.30216 8.52733C9.30216 8.6986 9.4746 8.95677 9.56082 9.12804L10.1643 9.73044C10.423 9.81735 10.6808 9.98862 10.9395 10.0747C11.1981 10.1599 11.4559 10.2459 11.7137 10.2459C12.1448 10.3328 12.4888 10.4172 12.9199 10.4172C13.4364 10.5041 14.0399 10.5041 14.5563 10.5902C15.0728 10.5902 15.6763 10.6754 16.1928 10.6754C17.0541 10.7623 18.0017 10.7623 18.8621 10.8483C19.2924 10.8483 19.6372 10.9336 19.9821 10.9336C20.7572 11.0205 21.6185 11.1065 22.3937 11.2778C23.0825 11.449 23.6861 11.622 24.375 11.8802C25.0827 12.1457 25.7277 12.5548 26.2692 13.0816C26.8727 13.5127 27.303 14.1151 27.647 14.7158C27.9056 15.1453 28.0772 15.6608 28.1634 16.0919C28.2497 16.6066 28.3359 17.1221 28.3359 17.7245C28.3359 18.24 28.2497 18.8424 28.1634 19.3587C28.0772 19.8734 27.8186 20.3888 27.647 20.82C27.303 21.4207 26.9581 22.0231 26.527 22.4525C26.0968 22.968 25.6657 23.3131 25.1492 23.6556C24.3741 24.1711 23.5999 24.6023 22.7377 24.9456C21.8763 25.2899 20.9297 25.5481 19.9821 25.8062C19.0346 25.9775 18.087 26.0644 17.1395 26.2357C16.1066 26.3226 15.0728 26.3226 14.039 26.4069H13.695C12.8337 26.4069 11.9715 26.3217 11.111 26.3217C10.1635 26.2348 9.21594 26.1488 8.2684 25.9775C7.42638 25.8179 6.59278 25.6168 5.77064 25.3751C4.99553 25.2038 4.30664 24.8604 3.61775 24.5162C3.12801 24.2806 2.66569 23.992 2.23911 23.6556C1.80887 23.2262 1.464 22.7968 1.11913 22.3656C0.946692 22.0231 0.775109 21.7649 0.602672 21.4207C0.448412 21.032 0.333175 20.629 0.258654 20.2176C0.172436 19.9594 0.0862179 19.7021 0.0862179 19.4439C-1.41561e-07 19.1014 0 18.8432 0 18.499V18.4121V18.1539H8.2684V18.7563C8.2684 18.9276 8.35462 19.1857 8.35462 19.4439L8.61242 19.9594C8.78485 20.2176 8.95729 20.3888 9.12887 20.647C9.30131 20.82 9.55911 20.9913 9.7324 21.1625C10.0764 21.3355 10.3351 21.5067 10.6799 21.678C11.024 21.7649 11.4551 21.9362 11.7991 22.0222C12.1439 22.1074 12.5742 22.1935 13.0053 22.2804C13.3493 22.2804 13.7804 22.3656 14.2115 22.3656C14.6417 22.3656 14.9857 22.2804 15.3306 22.2804C15.7608 22.2804 16.1057 22.1935 16.5368 22.1074C16.8808 22.0222 17.2257 21.9362 17.5706 21.7649C17.8284 21.678 18.087 21.5937 18.3457 21.4207C18.6043 21.3355 18.8621 21.1625 19.0346 20.9913C19.207 20.7331 19.3786 20.5618 19.551 20.3036C19.6372 20.0455 19.7235 19.8725 19.8097 19.616C19.8959 19.3579 19.8959 19.1005 19.8959 18.8424C19.8959 18.6694 19.8959 18.4112 19.8097 18.153C19.8097 17.9818 19.7235 17.8105 19.551 17.6375C19.401 17.4194 19.2278 17.218 19.0346 17.0368C18.7759 16.8639 18.5181 16.7787 18.1732 16.6926C17.9146 16.6057 17.5706 16.5213 17.2257 16.4344C16.7955 16.4344 16.4506 16.3492 16.0195 16.3492L12.2302 16.0911C11.5413 16.0041 10.7662 16.0041 9.99105 15.9181C9.30131 15.8329 8.52705 15.7468 7.75109 15.6599C7.00239 15.4983 6.25595 15.3265 5.51198 15.1444C4.99553 14.9732 4.47907 14.8019 3.96176 14.5437C3.53153 14.2855 3.10044 14.0282 2.75556 13.6831C2.32533 13.2537 1.98045 12.7382 1.72265 12.3088C1.37778 11.7933 1.2062 11.2769 1.03376 10.6745C0.947546 10.159 0.861328 9.55748 0.861328 9.04198C0.861328 8.35437 0.861328 7.75196 1.03376 7.0652C1.2062 6.5497 1.37778 5.9473 1.72265 5.51787C2.06667 4.83025 2.58398 4.22785 3.18665 3.62545C3.78933 3.11081 4.392 2.68051 5.16711 2.33713C5.856 1.9929 6.63111 1.73473 7.32 1.47655C8.16276 1.22236 9.02808 1.04973 9.90398 0.961062C10.6673 0.790677 11.4471 0.704097 12.2293 0.702881C13.0053 0.615971 13.6942 0.615967 14.4693 0.615967H14.8133C15.6746 0.615967 16.5359 0.702881 17.3964 0.702881C18.1715 0.789791 19.0329 0.961061 19.808 1.04712C20.5831 1.21838 21.4444 1.47655 22.1333 1.73472C22.8222 1.9929 23.5111 2.25023 24.2008 2.67966C24.6311 2.93784 25.0621 3.19515 25.4062 3.54024C25.8364 3.88447 26.0951 4.31391 26.3537 4.74335C26.6124 5.00152 26.7839 5.34575 26.8702 5.68827C27.0426 6.03251 27.128 6.37588 27.3004 6.72012C27.3004 6.97829 27.3866 7.14956 27.3866 7.40773C27.4728 7.66591 27.4728 7.83888 27.5591 8.09705V8.26831L27.5625 8.61425Z" fill="#AAA8A8"/>
</svg>
