<svg width="29" height="29" viewBox="0 0 29 29" fill="none" xmlns="http://www.w3.org/2000/svg">
<g clip-path="url(#clip0_106_23151)">
<path d="M16.6702 2.05968C15.7791 1.77857 14.8244 1.62476 13.8379 1.62476C10.9578 1.62476 8.38005 2.92424 6.65625 4.97158L11.0851 8.69498L16.6702 2.05968Z" fill="#1A73E8"/>
<path d="M6.65679 4.97144C5.23688 6.65791 4.45908 8.79216 4.46094 10.9968C4.46094 12.7577 4.811 14.1898 5.38914 15.468L11.0856 8.69484L6.65679 4.97144Z" fill="#EA4335"/>
<path d="M13.8373 7.41667C14.521 7.4173 15.1903 7.61329 15.7664 7.98155C16.3425 8.34981 16.8013 8.87502 17.0889 9.49531C17.3764 10.1156 17.4808 10.8052 17.3896 11.4828C17.2984 12.1604 17.0155 12.7978 16.5742 13.32L22.154 6.68472C21.0087 4.47812 19.0342 2.81648 16.6643 2.06494L11.0898 8.70024C11.4257 8.29799 11.8459 7.97451 12.3207 7.7527C12.7955 7.53088 13.3133 7.41617 13.8373 7.41667Z" fill="#4285F4"/>
<path d="M13.8379 14.5876C11.8595 14.5876 10.2524 12.9805 10.2524 11.0021C10.2501 10.1597 10.5471 9.34393 11.0905 8.7002L5.38867 15.4734C6.36461 17.6321 7.98233 19.3665 9.64778 21.5518L16.5748 13.32C16.2383 13.7176 15.819 14.037 15.3463 14.256C14.8736 14.4749 14.3589 14.5881 13.8379 14.5876Z" fill="#FBBC04"/>
<path d="M16.4362 23.7954C19.5655 18.9051 23.2094 16.6827 23.2094 10.9968C23.2094 9.43745 22.8275 7.96825 22.1539 6.67407L9.65234 21.5518C10.1827 22.2466 10.7184 22.9839 11.2382 23.8007C13.1371 26.7391 12.612 28.5 13.8372 28.5C15.0624 28.5 14.5373 26.7338 16.4362 23.7954Z" fill="#34A853"/>
</g>
<defs>
<clipPath id="clip0_106_23151">
<rect width="28" height="28" fill="white" transform="translate(0.5 0.5)"/>
</clipPath>
</defs>
</svg>
