<svg width="101" height="22" viewBox="0 0 101 22" fill="none" xmlns="http://www.w3.org/2000/svg">
<path fill-rule="evenodd" clip-rule="evenodd" d="M10.1177 12.1683C10.1177 12.1683 14.1648 6.61104 14.1648 4.25891C14.1648 1.90678 12.3529 0 10.1177 0C7.88259 0 6.07064 1.90678 6.07064 4.25891C6.07064 6.61104 10.1177 12.1683 10.1177 12.1683ZM15.5649 8.72529C16.3864 7.39015 17.0508 5.96947 17.3217 4.58933C17.9206 5.18964 18.4391 5.87302 18.877 6.63949C19.7826 8.17269 20.2354 9.90465 20.2354 11.8354C20.2354 13.785 19.7826 15.5359 18.877 17.088C17.9902 18.6212 16.7732 19.8232 15.2261 20.6939C13.679 21.5646 11.9809 21.9999 10.1319 21.9999C8.28285 21.9999 6.58477 21.5646 5.03763 20.6939C3.49049 19.8232 2.2641 18.6212 1.35846 17.088C0.452821 15.5359 0 13.785 0 11.8354C0 9.90465 0.452821 8.17269 1.35846 6.63949C1.8014 5.88036 2.32106 5.20273 2.91744 4.60661C3.19047 5.98121 3.85264 7.39551 4.6707 8.72499C4.27383 9.62906 4.07539 10.6658 4.07539 11.8354C4.07539 13.1603 4.3301 14.3244 4.83952 15.3277C5.34895 16.3309 6.05648 17.1069 6.96212 17.6559C7.88663 18.1859 8.94321 18.4509 10.1319 18.4509C11.3205 18.4509 12.3677 18.1859 13.2733 17.6559C14.179 17.1069 14.8865 16.3309 15.3959 15.3277C15.9053 14.3244 16.16 13.1603 16.16 11.8354C16.16 10.666 15.9616 9.62929 15.5649 8.72529Z" fill="#EE6D2F"/>
<path d="M30.6911 6.75331C32.2937 6.75331 33.5888 7.26438 34.5763 8.28652C35.5638 9.29243 36.0575 10.704 36.0575 12.5211V20.4305H32.6579V12.9835C32.6579 11.9127 32.3908 11.0933 31.8566 10.5255C31.3224 9.94141 30.5939 9.64937 29.6712 9.64937C28.7323 9.64937 27.9876 9.94141 27.4372 10.5255C26.903 11.0933 26.6359 11.9127 26.6359 12.9835V20.4305H23.2363V6.94801H26.6359V8.62723C27.0892 8.04315 27.6638 7.58887 28.3599 7.26438C29.0722 6.92367 29.8493 6.75331 30.6911 6.75331Z" fill="white"/>
<path d="M45.2152 3.44353C46.9959 3.44353 48.5581 3.79236 49.9018 4.49001C51.2616 5.18766 52.3057 6.18546 53.0342 7.48341C53.7789 8.76514 54.1512 10.2578 54.1512 11.9613C54.1512 13.6649 53.7789 15.1576 53.0342 16.4393C52.3057 17.7048 51.2616 18.6864 49.9018 19.384C48.5581 20.0817 46.9959 20.4305 45.2152 20.4305H39.2903V3.44353H45.2152ZM45.0938 17.5344C46.8745 17.5344 48.2505 17.0477 49.2218 16.0742C50.1931 15.1008 50.6788 13.7298 50.6788 11.9613C50.6788 10.1929 50.1931 8.81381 49.2218 7.82412C48.2505 6.81821 46.8745 6.31525 45.0938 6.31525H42.6898V17.5344H45.0938Z" fill="white"/>
<path d="M60.0955 9.04095C60.5326 8.32708 61.0992 7.76734 61.7953 7.36173C62.5075 6.95612 63.317 6.75331 64.2235 6.75331V10.3308H63.3251C62.2566 10.3308 61.4472 10.5823 60.8968 11.0852C60.3626 11.5882 60.0955 12.4643 60.0955 13.7136V20.4305H56.6959V6.94801H60.0955V9.04095Z" fill="white"/>
<path d="M68.2373 5.34179C67.6384 5.34179 67.1365 5.15521 66.7318 4.78205C66.3433 4.39266 66.149 3.91404 66.149 3.34619C66.149 2.77833 66.3433 2.30783 66.7318 1.93466C67.1365 1.54528 67.6384 1.35059 68.2373 1.35059C68.8363 1.35059 69.33 1.54528 69.7186 1.93466C70.1233 2.30783 70.3256 2.77833 70.3256 3.34619C70.3256 3.91404 70.1233 4.39266 69.7186 4.78205C69.33 5.15521 68.8363 5.34179 68.2373 5.34179ZM69.9128 6.94801V20.4305H66.5133V6.94801H69.9128Z" fill="white"/>
<path d="M78.8808 17.2911L82.2804 6.94801H85.8985L80.9206 20.4305H76.7926L71.8389 6.94801H75.4813L78.8808 17.2911Z" fill="white"/>
<path d="M100.313 13.3972C100.313 13.8839 100.281 14.322 100.216 14.7114H90.3818C90.4628 15.6848 90.8027 16.4474 91.4017 16.999C92.0007 17.5507 92.7373 17.8265 93.6114 17.8265C94.8741 17.8265 95.7726 17.283 96.3068 16.1959H99.9734C99.5849 17.4939 98.8403 18.5647 97.7394 19.4083C96.6386 20.2358 95.2869 20.6495 93.6843 20.6495C92.3892 20.6495 91.2236 20.3656 90.1876 19.7977C89.1677 19.2137 88.3664 18.3943 87.7836 17.3397C87.217 16.2852 86.9337 15.0683 86.9337 13.6892C86.9337 12.2939 87.217 11.069 87.7836 10.0144C88.3502 8.95983 89.1434 8.14861 90.1633 7.58076C91.1832 7.0129 92.3568 6.72898 93.6843 6.72898C94.9631 6.72898 96.1044 7.00479 97.1081 7.55642C98.128 8.10805 98.9131 8.89494 99.4635 9.91707C100.03 10.923 100.313 12.083 100.313 13.3972ZM96.7924 12.4237C96.7762 11.5476 96.4606 10.85 95.8454 10.3308C95.2303 9.79539 94.4775 9.52769 93.5871 9.52769C92.7453 9.52769 92.0331 9.78728 91.4503 10.3065C90.8837 10.8094 90.5356 11.5152 90.4061 12.4237H96.7924Z" fill="white"/>
</svg>
