<svg width="616" height="669" viewBox="0 0 616 669" fill="none" xmlns="http://www.w3.org/2000/svg">
<path opacity="0.03" fill-rule="evenodd" clip-rule="evenodd" d="M308 369.6C308 369.6 431.2 200.804 431.2 129.36C431.2 57.9164 376.042 0 308 0C239.959 0 184.8 57.9164 184.8 129.36C184.8 200.804 308 369.6 308 369.6ZM473.82 265.023C498.83 224.47 519.054 181.318 527.302 139.399C545.534 157.632 561.316 178.389 574.646 201.67C602.215 248.239 616 300.846 616 359.489C616 418.707 602.215 471.888 574.646 519.033C547.651 565.603 510.605 602.111 463.508 628.558C416.41 655.005 364.718 668.228 308.431 668.228C252.144 668.228 200.451 655.005 153.354 628.558C106.256 602.111 68.9231 565.603 41.3538 519.033C13.7846 471.888 0 418.707 0 359.489C0 300.846 13.7846 248.239 41.3538 201.67C54.8377 178.612 70.6573 158.029 88.8126 139.922C97.1241 181.674 117.282 224.632 142.185 265.013C130.103 292.474 124.062 323.966 124.062 359.489C124.062 399.734 131.815 435.093 147.323 465.564C162.831 496.036 184.369 519.608 211.938 536.281C240.082 552.379 272.246 560.428 308.431 560.428C344.615 560.428 376.492 552.379 404.061 536.281C431.631 519.608 453.169 496.036 468.677 465.564C484.185 435.093 491.938 399.734 491.938 359.489C491.938 323.97 485.899 292.481 473.82 265.023Z" fill="white"/>
</svg>
